<svg height="512pt" viewBox="0 0 511 512" width="512pt" xmlns="http://www.w3.org/2000/svg"><path d="m402.277344 204.535156h-60.5c-11.21875 0-20.316406-9.097656-20.316406-20.316406v-145.65625c0-16.277344 13.199218-29.472656 29.472656-29.472656h42.1875c16.277344 0 29.472656 13.195312 29.472656 29.472656v145.65625c0 11.21875-9.09375 20.316406-20.316406 20.316406zm0 0" fill="#3c88d1"/><path d="m167.660156 272.863281h-60.789062c-11.140625 0-20.171875-9.03125-20.171875-20.171875v-146.003906c0-16.164062 13.105469-29.265625 29.269531-29.265625h42.597656c16.164063 0 29.265625 13.101563 29.265625 29.265625v146.003906c0 11.144532-9.03125 20.171875-20.171875 20.171875zm0 0" fill="#f04424"/><path d="m402.421875 433.886719h-60.785156c-11.144531 0-20.175781-9.03125-20.175781-20.171875v-146.007813c0-16.164062 13.105468-29.265625 29.269531-29.265625h42.597656c16.164063 0 29.265625 13.101563 29.265625 29.265625v146.007813c0 11.140625-9.03125 20.171875-20.171875 20.171875zm0 0" fill="#8c808a"/><path d="m167.660156 502.21875h-60.789062c-11.140625 0-20.171875-9.03125-20.171875-20.171875v-146.003906c0-16.164063 13.105469-29.269531 29.269531-29.269531h42.597656c16.164063 0 29.265625 13.105468 29.265625 29.269531v146.003906c0 11.140625-9.03125 20.171875-20.171875 20.171875zm0 0" fill="#fbc700"/><g fill="#e8e8ed"><path d="m186.070312 96.671875c-4.011718-11.019531-14.460937-18.9375-26.796874-19.234375-1.4375 2.457031-2.277344 5.308594-2.277344 8.359375 0 9.15625 7.421875 16.578125 16.582031 16.578125 4.988281 0 9.453125-2.214844 12.492187-5.703125zm0 0"/><path d="m186.015625 325.875c-4.066406-10.980469-14.535156-18.84375-26.871094-19.085938-1.359375 2.40625-2.148437 5.183594-2.148437 8.144532 0 9.15625 7.425781 16.582031 16.582031 16.582031 4.957031 0 9.398437-2.1875 12.4375-5.640625zm0 0"/><path d="m420.671875 27.925781c-4.160156-10.902343-14.648437-18.671875-26.972656-18.828125-1.234375 2.320313-1.941407 4.964844-1.941407 7.773438 0 9.15625 7.421876 16.582031 16.582032 16.582031 4.902344 0 9.296875-2.144531 12.332031-5.527344zm0 0"/><path d="m420.480469 256.789062c-4.328125-10.742187-14.832031-18.332031-27.117188-18.34375-1.019531 2.148438-1.605469 4.542969-1.605469 7.078126 0 9.15625 7.425782 16.578124 16.582032 16.578124 4.800781 0 9.113281-2.050781 12.140625-5.3125zm0 0"/></g><path d="m436.640625 87.265625h-26.304687v-19.996094h26.304687c4.046875 0 7.328125 3.277344 7.328125 7.324219v5.347656c0 4.046875-3.28125 7.324219-7.328125 7.324219zm0 0" fill="#3c88d1"/><path d="m334.101562 87.265625h-26.308593c-4.046875 0-7.328125-3.277344-7.328125-7.324219v-5.347656c0-4.046875 3.28125-7.324219 7.328125-7.324219h26.308593zm0 0" fill="#3c88d1"/><path d="m393.324219 9.089844h-7.25c4.953125 5.242187 7.996093 12.308594 7.996093 20.089844v146.003906c0 11.140625-9.03125 20.171875-20.171874 20.171875h-49.164063c3.601563 5.519531 9.820313 9.175781 16.902344 9.175781h60.785156c11.140625 0 20.171875-9.03125 20.171875-20.171875v-146.003906c0-16.164063-13.105469-29.265625-29.269531-29.265625zm0 0" fill="#0078c9"/><path d="m201.929688 155.597656h-26.355469v-19.996094h26.355469c4.019531 0 7.277343 3.253907 7.277343 7.273438v5.449219c0 4.015625-3.257812 7.273437-7.277343 7.273437zm0 0" fill="#8c808a"/><path d="m402.332031 100.734375h-60.609375c-1.097656 0-1.984375-.886719-1.984375-1.984375v-29.328125c0-7.183594 5.820313-13.003906 13.003907-13.003906h38.574218c7.179688 0 13 5.820312 13 13.003906v29.328125c0 1.097656-.886718 1.984375-1.984375 1.984375zm0 0" fill="#b4dbff"/><path d="m391.316406 56.417969h-14.929687c7.179687 0 13.003906 5.820312 13.003906 13.003906v29.328125c0 1.097656-.890625 1.984375-1.984375 1.984375h14.925781c1.097657 0 1.984375-.886719 1.984375-1.984375v-29.328125c0-7.183594-5.820312-13.003906-13-13.003906zm0 0" fill="#8bcaff"/><path d="m388.011719 177.1875h-31.96875c-9.003907 0-16.304688-7.296875-16.304688-16.304688v-7.03125c0-1.097656.886719-1.984374 1.984375-1.984374h60.609375c1.097657 0 1.984375.886718 1.984375 1.984374v7.03125c0 9.007813-7.300781 16.304688-16.304687 16.304688zm0 0" fill="#b4dbff"/><path d="m402.332031 151.867188h-10.59375v.832031c0 9.003906-7.300781 16.304687-16.304687 16.304687h-31.96875c-.539063 0-1.070313-.027344-1.597656-.078125 2.804687 4.929688 8.097656 8.261719 14.175781 8.261719h31.96875c9.003906 0 16.304687-7.296875 16.304687-16.304688v-7.03125c0-1.097656-.886718-1.984374-1.984375-1.984374zm0 0" fill="#8bcaff"/><path d="m436.691406 316.621094h-26.355468v-20h26.355468c4.019532 0 7.277344 3.257812 7.277344 7.277344v5.445312c0 4.019531-3.257812 7.277344-7.277344 7.277344zm0 0" fill="#8c808a"/><path d="m334.101562 316.621094h-26.359374c-4.019532 0-7.277344-3.257813-7.277344-7.277344v-5.445312c0-4.019532 3.257812-7.277344 7.277344-7.277344h26.359374zm0 0" fill="#8c808a"/><path d="m393.324219 238.441406h-7.25c4.953125 5.242188 7.996093 12.308594 7.996093 20.089844v146.003906c0 11.144532-9.03125 20.175782-20.171874 20.175782h-49.164063c3.601563 5.519531 9.820313 9.175781 16.902344 9.175781h60.785156c11.140625 0 20.171875-9.03125 20.171875-20.171875v-146.007813c0-16.160156-13.105469-29.265625-29.269531-29.265625zm0 0" fill="#7a6d79"/><path d="m436.691406 316.621094h-26.355468v-20h26.355468c4.019532 0 7.277344 3.257812 7.277344 7.277344v5.445312c0 4.019531-3.257812 7.277344-7.277344 7.277344zm0 0" fill="#7a6d79"/><path d="m158.5625 77.421875h-7.25c4.953125 5.242187 7.996094 12.308594 7.996094 20.089844v146.003906c0 11.140625-9.03125 20.171875-20.171875 20.171875h-49.164063c3.597656 5.519531 9.816406 9.175781 16.898438 9.175781h60.785156c11.140625 0 20.175781-9.03125 20.175781-20.171875v-146.003906c0-16.164062-13.105469-29.265625-29.269531-29.265625zm0 0" fill="#bc3720"/><path d="m201.929688 155.597656h-26.355469v-19.996094h26.355469c4.019531 0 7.277343 3.253907 7.277343 7.273438v5.449219c0 4.015625-3.257812 7.273437-7.277343 7.273437zm0 0" fill="#bc3720"/><path d="m201.929688 384.953125h-26.355469v-20h26.355469c4.019531 0 7.277343 3.257813 7.277343 7.273437v5.449219c0 4.019531-3.257812 7.277344-7.277343 7.277344zm0 0" fill="#fbc700"/><path d="m158.5625 306.773438h-7.25c4.953125 5.242187 7.996094 12.308593 7.996094 20.089843v146.003907c0 11.140624-9.03125 20.175781-20.171875 20.175781h-49.164063c3.597656 5.519531 9.816406 9.175781 16.898438 9.175781h60.785156c11.140625 0 20.175781-9.03125 20.175781-20.171875v-146.003906c0-16.164063-13.105469-29.269531-29.269531-29.269531zm0 0" fill="#e9b900"/><path d="m167.570312 398.417969h-60.613281c-1.09375 0-1.980469-.886719-1.980469-1.984375v-29.328125c0-7.179688 5.820313-13 13-13h38.574219c7.183594 0 13.003907 5.820312 13.003907 13v29.328125c0 1.097656-.886719 1.984375-1.984376 1.984375zm0 0" fill="#d9edff"/><path d="m156.550781 354.101562h-14.925781c7.179688 0 13 5.824219 13 13.003907v29.328125c0 1.097656-.886719 1.984375-1.984375 1.984375h14.929687c1.097657 0 1.984376-.886719 1.984376-1.984375v-29.328125c0-7.179688-5.820313-13.003907-13.003907-13.003907zm0 0" fill="#b4dbff"/><path d="m153.25 474.875h-31.96875c-9.003906 0-16.304688-7.300781-16.304688-16.304688v-7.035156c0-1.097656.886719-1.984375 1.984376-1.984375h60.609374c1.097657 0 1.984376.886719 1.984376 1.984375v7.035156c0 9.003907-7.300782 16.304688-16.304688 16.304688zm0 0" fill="#d9edff"/><path d="m167.570312 449.550781h-10.59375v.835938c0 9.003906-7.300781 16.304687-16.304687 16.304687h-31.96875c-.539063 0-1.074219-.03125-1.597656-.082031 2.804687 4.933594 8.09375 8.265625 14.175781 8.265625h31.96875c9.003906 0 16.304688-7.300781 16.304688-16.304688v-7.035156c0-1.097656-.886719-1.984375-1.984376-1.984375zm0 0" fill="#b4dbff"/><path d="m99.335938 384.953125h-26.359376c-4.015624 0-7.273437-3.257813-7.273437-7.277344v-5.449219c0-4.015624 3.257813-7.273437 7.273437-7.273437h26.359376zm0 0" fill="#fbc700"/><path d="m167.570312 169.066406h-60.613281c-1.09375 0-1.980469-.890625-1.980469-1.984375v-29.328125c0-7.183594 5.820313-13.003906 13-13.003906h38.574219c7.183594 0 13.003907 5.820312 13.003907 13.003906v29.328125c0 1.09375-.886719 1.984375-1.984376 1.984375zm0 0" fill="#b4dbff"/><path d="m156.550781 124.75h-14.925781c7.179688 0 13 5.820312 13 13.003906v29.328125c0 1.09375-.886719 1.984375-1.984375 1.984375h14.929687c1.097657 0 1.984376-.890625 1.984376-1.984375v-29.328125c0-7.183594-5.820313-13.003906-13.003907-13.003906zm0 0" fill="#8bcaff"/><path d="m153.25 245.523438h-31.96875c-9.003906 0-16.304688-7.300782-16.304688-16.304688v-7.035156c0-1.097656.886719-1.984375 1.984376-1.984375h60.609374c1.097657 0 1.984376.886719 1.984376 1.984375v7.035156c0 9.003906-7.300782 16.304688-16.304688 16.304688zm0 0" fill="#b4dbff"/><path d="m167.570312 220.195312h-10.59375v.835938c0 9.003906-7.300781 16.304688-16.304687 16.304688h-31.96875c-.539063 0-1.074219-.03125-1.597656-.082032 2.804687 4.933594 8.09375 8.265625 14.175781 8.265625h31.96875c9.003906 0 16.304688-7.296875 16.304688-16.304687v-7.035156c0-1.09375-.886719-1.984376-1.984376-1.984376zm0 0" fill="#8bcaff"/><path d="m99.335938 155.597656h-26.359376c-4.015624 0-7.273437-3.253906-7.273437-7.273437v-5.449219c0-4.019531 3.257813-7.273438 7.273437-7.273438h26.359376zm0 0" fill="#f04424"/><path d="m402.332031 330.089844h-60.609375c-1.097656 0-1.984375-.890625-1.984375-1.984375v-29.328125c0-7.183594 5.820313-13.003906 13.003907-13.003906h38.574218c7.179688 0 13 5.820312 13 13.003906v29.328125c0 1.09375-.886718 1.984375-1.984375 1.984375zm0 0" fill="#b4dbff"/><path d="m391.316406 285.769531h-14.929687c7.179687 0 13.003906 5.824219 13.003906 13.003907v29.328124c0 1.097657-.890625 1.984376-1.984375 1.984376h14.925781c1.097657 0 1.984375-.886719 1.984375-1.984376v-29.328124c0-7.179688-5.820312-13.003907-13-13.003907zm0 0" fill="#8bcaff"/><path d="m388.011719 406.542969h-31.96875c-9.003907 0-16.304688-7.300781-16.304688-16.304688v-7.035156c0-1.09375.886719-1.984375 1.984375-1.984375h60.609375c1.097657 0 1.984375.890625 1.984375 1.984375v7.035156c0 9.003907-7.300781 16.304688-16.304687 16.304688zm0 0" fill="#b4dbff"/><path d="m402.332031 381.21875h-10.59375v.835938c0 9.003906-7.300781 16.304687-16.304687 16.304687h-31.96875c-.539063 0-1.070313-.03125-1.597656-.082031 2.804687 4.933594 8.097656 8.265625 14.175781 8.265625h31.96875c9.003906 0 16.304687-7.300781 16.304687-16.304688v-7.035156c0-1.09375-.886718-1.984375-1.984375-1.984375zm0 0" fill="#8bcaff"/><path d="m201.929688 384.953125h-26.355469v-20h26.355469c4.019531 0 7.277343 3.257813 7.277343 7.273437v5.449219c0 4.019531-3.257812 7.277344-7.277343 7.277344zm0 0" fill="#e9b900"/><path d="m475.949219 490.449219v-469.367188c0-7.535156 6.109375-13.640625 13.640625-13.640625 7.535156 0 13.644531 6.105469 13.644531 13.640625v469.371094c0 7.53125-6.109375 13.640625-13.644531 13.640625-7.53125 0-13.640625-6.109375-13.640625-13.644531zm0 0" fill="#ab9faa"/><path d="m489.589844 7.441406c-1.789063 0-3.496094.355469-5.0625.980469 5.023437 2.011719 8.578125 6.917969 8.578125 12.660156v469.371094c0 5.742187-3.554688 10.648437-8.578125 12.65625 1.566406.628906 3.273437.984375 5.0625.984375 7.535156 0 13.644531-6.109375 13.644531-13.640625v-469.371094c0-7.535156-6.109375-13.640625-13.644531-13.640625zm0 0" fill="#9c8f9a"/><path d="m7.941406 490.449219v-469.367188c0-7.535156 6.105469-13.640625 13.640625-13.640625 7.535157 0 13.640625 6.105469 13.640625 13.640625v469.371094c0 7.53125-6.105468 13.640625-13.640625 13.640625-7.535156 0-13.640625-6.109375-13.640625-13.644531zm0 0" fill="#ab9faa"/><path d="m21.582031 7.441406c-1.789062 0-3.496093.355469-5.0625.980469 5.023438 2.011719 8.578125 6.917969 8.578125 12.660156v469.371094c0 5.742187-3.554687 10.648437-8.578125 12.65625 1.566407.628906 3.273438.984375 5.0625.984375 7.535157 0 13.640625-6.109375 13.640625-13.640625v-469.371094c0-7.535156-6.105468-13.640625-13.640625-13.640625zm0 0" fill="#9c8f9a"/><path d="m119.664062 314.9375c0-2.972656-.789062-5.753906-2.15625-8.164062h-1.542968c-11.898438 0-22.132813 7.105468-26.707032 17.304687 2.96875 4.480469 8.050782 7.4375 13.824219 7.4375 9.160157 0 16.582031-7.421875 16.582031-16.578125zm0 0" fill="#e8e8ed"/><path d="m354.425781 16.871094c0-2.8125-.707031-5.460938-1.941406-7.78125h-1.753906c-11.816407 0-21.988281 7.003906-26.613281 17.082031 2.984374 4.394531 8.019531 7.28125 13.726562 7.28125 9.160156 0 16.582031-7.425781 16.582031-16.582031zm0 0" fill="#e8e8ed"/><path d="m354.425781 245.523438c0-2.539063-.585937-4.933594-1.605469-7.082032h-2.089843c-11.644531 0-21.699219 6.800782-26.414063 16.644532 3.003906 4.242187 7.9375 7.015624 13.527344 7.015624 9.160156 0 16.582031-7.421874 16.582031-16.578124zm0 0" fill="#e8e8ed"/><path d="m119.664062 85.792969c0-3.058594-.84375-5.914063-2.289062-8.371094h-1.410156c-11.945313 0-22.214844 7.160156-26.761719 17.425781 2.957031 4.527344 8.066406 7.527344 13.878906 7.527344 9.160157 0 16.582031-7.421875 16.582031-16.582031zm0 0" fill="#e8e8ed"/><path d="m186.070312 96.671875c-4.011718-11.019531-14.460937-18.9375-26.796874-19.234375-1.4375 2.457031-2.277344 5.308594-2.277344 8.359375 0 9.15625 7.421875 16.578125 16.582031 16.578125 4.988281 0 9.453125-2.214844 12.492187-5.703125zm0 0" fill="#d2d2dd"/><path d="m186.015625 325.875c-4.066406-10.980469-14.535156-18.84375-26.871094-19.085938-1.359375 2.40625-2.148437 5.183594-2.148437 8.144532 0 9.15625 7.425781 16.582031 16.582031 16.582031 4.957031 0 9.398437-2.1875 12.4375-5.640625zm0 0" fill="#d2d2dd"/><path d="m420.671875 27.925781c-4.160156-10.902343-14.648437-18.671875-26.972656-18.828125-1.234375 2.320313-1.941407 4.964844-1.941407 7.773438 0 9.15625 7.421876 16.582031 16.582032 16.582031 4.902344 0 9.296875-2.144531 12.332031-5.527344zm0 0" fill="#d2d2dd"/><path d="m420.480469 256.789062c-4.328125-10.742187-14.832031-18.332031-27.117188-18.34375-1.019531 2.148438-1.605469 4.542969-1.605469 7.078126 0 9.15625 7.425782 16.578124 16.582032 16.578124 4.800781 0 9.113281-2.050781 12.140625-5.3125zm0 0" fill="#d2d2dd"/><path d="m436.691406 87.265625h-26.355468v-19.996094h26.355468c4.019532 0 7.277344 3.253907 7.277344 7.273438v5.449219c0 4.015624-3.257812 7.273437-7.277344 7.273437zm0 0" fill="#0078c9"/><path d="m255.074219 418.601562c-4.097657 0-7.421875-3.324218-7.421875-7.421874v-29.699219c0-4.101563 3.324218-7.425781 7.421875-7.425781 4.101562 0 7.425781 3.324218 7.425781 7.425781v29.699219c0 4.097656-3.324219 7.421874-7.425781 7.421874zm0 0"/><path d="m255.074219 325.207031c-4.097657 0-7.421875-3.324219-7.421875-7.425781v-29.699219c0-4.101562 3.324218-7.425781 7.421875-7.425781 4.101562 0 7.425781 3.324219 7.425781 7.425781v29.699219c0 4.101562-3.324219 7.425781-7.425781 7.425781zm0 0"/><path d="m255.074219 512c-4.097657 0-7.421875-3.324219-7.421875-7.425781v-29.699219c0-4.097656 3.324218-7.421875 7.421875-7.421875 4.101562 0 7.425781 3.324219 7.425781 7.421875v29.699219c0 4.101562-3.324219 7.425781-7.425781 7.425781zm0 0"/><path d="m255.074219 231.808594c-4.097657 0-7.421875-3.324219-7.421875-7.425782v-29.699218c0-4.097656 3.324218-7.421875 7.421875-7.421875 4.101562 0 7.425781 3.324219 7.425781 7.421875v29.699218c0 4.101563-3.324219 7.425782-7.425781 7.425782zm0 0"/><path d="m255.074219 138.410156c-4.097657 0-7.421875-3.324218-7.421875-7.421875v-29.699219c0-4.101562 3.324218-7.425781 7.421875-7.425781 4.101562 0 7.425781 3.324219 7.425781 7.425781v29.699219c0 4.097657-3.324219 7.421875-7.425781 7.421875zm0 0"/><path d="m255.074219 45.015625c-4.097657 0-7.421875-3.324219-7.421875-7.425781v-29.699219c0-4.101563 3.324218-7.425781 7.421875-7.425781 4.101562 0 7.425781 3.324218 7.425781 7.425781v29.699219c0 4.101562-3.324219 7.425781-7.425781 7.425781zm0 0"/><path d="m156.550781 346.664062h-38.570312c-11.273438 0-20.445313 9.171876-20.445313 20.441407v29.328125c0 5.199218 4.226563 9.425781 9.425782 9.425781h60.609374c5.199219 0 9.425782-4.226563 9.425782-9.425781v-29.328125c0-11.273438-9.171875-20.441407-20.445313-20.441407zm5.5625 44.316407h-49.699219v-23.875c0-3.066407 2.496094-5.558594 5.566407-5.558594h38.570312c3.070313 0 5.566407 2.492187 5.566407 5.558594v23.875zm0 0"/><path d="m167.570312 442.109375h-60.613281c-5.195312 0-9.421875 4.230469-9.421875 9.425781v7.035156c0 13.09375 10.652344 23.746094 23.746094 23.746094h31.96875c13.09375 0 23.746094-10.652344 23.746094-23.746094v-7.035156c0-5.195312-4.226563-9.425781-9.425782-9.425781zm-5.457031 16.460937c0 4.886719-3.976562 8.863282-8.863281 8.863282h-31.96875c-4.890625 0-8.867188-3.976563-8.867188-8.863282v-1.578124h49.699219zm0 0"/><path d="m436.691406 59.828125h-6.65625v-21.472656c0-20.242188-16.46875-36.707031-36.707031-36.707031h-42.597656c-20.242188 0-36.707031 16.46875-36.707031 36.707031v21.472656h-6.28125c-8.113282 0-14.71875 6.601563-14.71875 14.714844v5.449219c0 8.113281 6.605468 14.714843 14.71875 14.714843h6.28125v89.652344c0 15.226563 12.386718 27.613281 27.613281 27.613281h60.785156c15.226563 0 27.613281-12.386718 27.613281-27.613281v-89.652344h6.65625c8.117188 0 14.71875-6.601562 14.71875-14.714843v-5.449219c0-8.113281-6.601562-14.714844-14.71875-14.714844zm-25.667968-34.222656c-.855469.261719-1.757813.40625-2.683594.40625-4.878906 0-8.867188-3.847657-9.117188-8.664063 4.808594 1.347656 8.949219 4.308594 11.800782 8.257813zm-64.039063-8.746094v.011719c0 5.039062-4.097656 9.140625-9.136719 9.140625-1.527344 0-3-.382813-4.308594-1.082031 3.265626-4.171876 8.011719-7.128907 13.445313-8.070313zm-39.078125 62.96875v-5.121094h6.113281v5.121094zm94.515625 117.265625h-60.785156c-7.023438 0-12.734375-5.710938-12.734375-12.730469v-145.203125c2.804687 1.125 5.832031 1.734375 8.945312 1.734375 13.242188 0 24.019532-10.777343 24.019532-24.023437 0-.113282-.007813-.226563-.011719-.339844h22.472656c-.003906.113281-.011719.226562-.011719.339844 0 13.246094 10.777344 24.023437 24.023438 24.023437 2.324218 0 4.617187-.351562 6.8125-1.003906v144.472656c0 7.019531-5.710938 12.730469-12.730469 12.730469zm34.105469-117.265625h-6.492188v-5.121094h6.492188zm0 0"/><path d="m201.929688 128.160156h-6.65625v-21.472656c0-20.242188-16.46875-36.707031-36.707032-36.707031h-42.597656c-20.242188 0-36.707031 16.46875-36.707031 36.707031v21.472656h-6.28125c-8.113281 0-14.714844 6.601563-14.714844 14.714844v5.449219c0 8.113281 6.601563 14.714843 14.714844 14.714843h6.28125v89.652344c0 15.226563 12.386719 27.613282 27.613281 27.613282h60.785156c15.226563 0 27.613282-12.386719 27.613282-27.613282v-89.652344h6.660156c8.113281 0 14.714844-6.601562 14.714844-14.714843v-5.449219c0-8.113281-6.605469-14.714844-14.71875-14.714844zm-25.332032-33.75c-.960937.339844-1.980468.523438-3.019531.523438-5.039063 0-9.140625-4.097656-9.140625-9.140625 0-.039063.007812-.078125.007812-.117188 5.003907 1.402344 9.289063 4.542969 12.152344 8.734375zm-64.414062-9.214844c.011718.199219.039062.398438.039062.597657 0 5.042969-4.101562 9.140625-9.140625 9.140625-1.652343 0-3.238281-.457032-4.617187-1.269532 3.265625-4.378906 8.128906-7.488281 13.71875-8.46875zm-39.039063 62.960938v-5.117188h6.113281v5.117188zm94.511719 117.269531h-60.785156c-7.019532 0-12.730469-5.710937-12.730469-12.734375v-144.601562c2.796875 1.121094 5.824219 1.726562 8.941406 1.726562 13.246094 0 24.023438-10.777344 24.023438-24.023437 0-.308594-.019531-.621094-.03125-.929688h22.511719c-.011719.308594-.03125.621094-.03125.929688 0 13.246093 10.777343 24.023437 24.023437 24.023437 2.328125 0 4.621094-.347656 6.8125-1v143.875c0 7.023438-5.710937 12.734375-12.734375 12.734375zm34.109375-117.269531h-6.496094v-5.117188h6.496094zm0 0"/><path d="m391.3125 48.976562h-38.574219c-11.269531 0-20.441406 9.171876-20.441406 20.445313v29.328125c0 5.195312 4.226563 9.425781 9.425781 9.425781h60.609375c5.199219 0 9.425781-4.230469 9.425781-9.425781v-29.328125c0-11.273437-9.171874-20.445313-20.445312-20.445313zm5.5625 44.316407h-49.695312v-23.871094c0-3.066406 2.492187-5.5625 5.558593-5.5625h38.574219c3.066406 0 5.5625 2.496094 5.5625 5.5625zm0 0"/><path d="m402.332031 144.425781h-60.609375c-5.199218 0-9.425781 4.226563-9.425781 9.425781v7.035157c0 13.089843 10.652344 23.742187 23.746094 23.742187h31.96875c13.09375 0 23.746093-10.652344 23.746093-23.742187v-7.035157c0-5.199218-4.226562-9.425781-9.425781-9.425781zm-5.457031 16.460938c0 4.886719-3.976562 8.863281-8.863281 8.863281h-31.96875c-4.886719 0-8.863281-3.976562-8.863281-8.863281v-1.578125h49.699218v1.578125zm0 0"/><path d="m436.691406 289.179688h-6.65625v-21.46875c0-20.242188-16.46875-36.707032-36.707031-36.707032h-42.597656c-20.242188 0-36.707031 16.464844-36.707031 36.707032v21.46875h-6.28125c-8.113282 0-14.71875 6.601562-14.71875 14.714843v5.449219c0 8.117188 6.605468 14.714844 14.71875 14.714844h6.28125v89.65625c0 15.226562 12.386718 27.613281 27.613281 27.613281h60.785156c15.226563 0 27.613281-12.386719 27.613281-27.613281v-42.648438c0-4.109375-3.332031-7.441406-7.441406-7.441406s-7.441406 3.332031-7.441406 7.441406v42.648438c0 7.019531-5.710938 12.730468-12.730469 12.730468h-60.785156c-7.023438 0-12.734375-5.710937-12.734375-12.730468v-145.921875c2.8125 1.132812 5.839844 1.75 8.945312 1.75 13.121094 0 23.816406-10.582031 24.011719-23.660157h22.46875c.195313 13.078126 10.886719 23.660157 24.011719 23.660157 2.324218 0 4.617187-.351563 6.8125-1.007813v67.710938c0 4.109375 3.332031 7.4375 7.441406 7.4375s7.441406-3.328125 7.441406-7.4375v-12.183594h6.660156c8.113282 0 14.714844-6.601562 14.714844-14.71875v-5.445312c0-8.117188-6.601562-14.71875-14.71875-14.71875zm-128.785156 20v-5.117188h6.113281v5.117188zm29.941406-54.519532c-1.367187 0-2.691406-.320312-3.894531-.894531 3.238281-3.890625 7.804687-6.636719 12.996094-7.546875-.355469 4.714844-4.296875 8.441406-9.101563 8.441406zm61.441406-7.941406c4.539063 1.289062 8.476563 4.015625 11.292969 7.652344-.722656.183594-1.472656.289062-2.242187.289062-4.632813 0-8.464844-3.46875-9.050782-7.941406zm37.238282 62.460938h-6.492188v-5.117188h6.492188zm0 0"/><path d="m201.929688 357.511719h-6.65625v-21.46875c0-20.242188-16.46875-36.710938-36.707032-36.710938h-42.597656c-20.242188 0-36.707031 16.46875-36.707031 36.710938v21.46875h-6.28125c-8.113281 0-14.714844 6.601562-14.714844 14.714843v5.449219c0 8.117188 6.601563 14.714844 14.714844 14.714844h6.28125v89.65625c0 15.226563 12.386719 27.613281 27.613281 27.613281h60.785156c15.226563 0 27.613282-12.386718 27.613282-27.613281v-89.65625h6.660156c8.113281 0 14.714844-6.601563 14.714844-14.714844v-5.449219c0-8.113281-6.605469-14.714843-14.71875-14.714843zm-25.453126-33.917969c-.925781.3125-1.90625.480469-2.898437.480469-5.011719 0-9.085937-4.050781-9.136719-9.050781 4.941406 1.386718 9.171875 4.464843 12.035156 8.570312zm-64.277343-9.046875c.003906.128906.023437.257813.023437.390625 0 5.039062-4.097656 9.136719-9.136718 9.136719-1.609376 0-3.15625-.429688-4.511719-1.203125 3.265625-4.300782 8.089843-7.355469 13.625-8.324219zm-39.054688 62.964844v-5.117188h6.113281v5.117188zm94.511719 117.265625h-60.785156c-7.019532 0-12.730469-5.710938-12.730469-12.730469v-144.820313c2.800781 1.125 5.828125 1.730469 8.941406 1.730469 13.246094 0 24.023438-10.773437 24.023438-24.019531 0-.242188-.015625-.480469-.023438-.722656h22.496094c-.007813.242187-.023437.480468-.023437.722656 0 13.242188 10.777343 24.019531 24.019531 24.019531 2.332031 0 4.621093-.347656 6.816406-1v144.089844c0 7.019531-5.710937 12.730469-12.734375 12.730469zm34.109375-117.265625h-6.496094v-5.117188h6.496094zm0 0"/><path d="m156.550781 117.308594h-38.570312c-11.273438 0-20.445313 9.171875-20.445313 20.445312v29.328125c0 5.195313 4.226563 9.425781 9.425782 9.425781h60.609374c5.199219 0 9.425782-4.230468 9.425782-9.425781v-29.328125c0-11.273437-9.171875-20.445312-20.445313-20.445312zm5.5625 44.316406h-49.699219v-23.871094c0-3.066406 2.496094-5.5625 5.566407-5.5625h38.570312c3.070313 0 5.566407 2.496094 5.566407 5.5625v23.871094zm0 0"/><path d="m167.570312 212.757812h-60.613281c-5.195312 0-9.421875 4.226563-9.421875 9.421876v7.035156c0 13.09375 10.652344 23.746094 23.746094 23.746094h31.96875c13.09375 0 23.746094-10.652344 23.746094-23.746094v-7.035156c0-5.195313-4.226563-9.421876-9.425782-9.421876zm-5.457031 16.457032c0 4.886718-3.976562 8.867187-8.863281 8.867187h-31.96875c-4.890625 0-8.867188-3.980469-8.867188-8.867187v-1.578125h49.699219zm0 0"/><path d="m411.757812 298.777344c0-11.277344-9.171874-20.445313-20.445312-20.445313h-38.574219c-11.269531 0-20.441406 9.171875-20.441406 20.445313v29.328125c0 5.195312 4.226563 9.421875 9.425781 9.421875h60.609375c5.199219 0 9.425781-4.226563 9.425781-9.421875zm-14.882812 23.871094h-49.695312v-23.871094c0-3.070313 2.492187-5.566406 5.558593-5.566406h38.574219c3.066406 0 5.5625 2.496093 5.5625 5.566406zm0 0"/><path d="m402.332031 373.777344h-60.609375c-5.199218 0-9.425781 4.230468-9.425781 9.425781v7.035156c0 13.09375 10.652344 23.746094 23.746094 23.746094h31.96875c13.09375 0 23.746093-10.652344 23.746093-23.746094v-7.035156c0-5.195313-4.226562-9.425781-9.425781-9.425781zm-5.457031 16.460937c0 4.886719-3.976562 8.863281-8.863281 8.863281h-31.96875c-4.886719 0-8.863281-3.976562-8.863281-8.863281v-1.578125h49.699218v1.578125zm0 0"/><path d="m489.589844 0c-11.625 0-21.082032 9.457031-21.082032 21.082031v469.367188c0 11.625 9.457032 21.082031 21.082032 21.082031s21.082031-9.457031 21.082031-21.082031v-469.367188c0-11.625-9.457031-21.082031-21.082031-21.082031zm6.203125 490.453125c0 3.417969-2.78125 6.199219-6.199219 6.199219-3.421875 0-6.203125-2.78125-6.203125-6.199219v-469.371094c0-3.417969 2.78125-6.199219 6.203125-6.199219 3.417969 0 6.199219 2.78125 6.199219 6.199219zm0 0"/><path d="m21.582031 0c-11.625 0-21.082031 9.457031-21.082031 21.082031v469.367188c0 11.625 9.457031 21.085937 21.082031 21.085937s21.082031-9.460937 21.082031-21.082031v-251.722656c0-4.109375-3.332031-7.441407-7.441406-7.441407s-7.441406 3.332032-7.441406 7.441407v251.722656c0 3.417969-2.78125 6.199219-6.199219 6.199219s-6.203125-2.78125-6.203125-6.199219v-469.371094c0-3.417969 2.785156-6.199219 6.203125-6.199219s6.199219 2.78125 6.199219 6.199219v183.558594c0 4.109375 3.332031 7.441406 7.441406 7.441406s7.441406-3.332031 7.441406-7.441406v-183.558594c0-11.625-9.457031-21.082031-21.082031-21.082031zm0 0"/></svg>